# cube.obj
#

g cube

v  -0.5  -0.5  -0.5
v  -0.5  -0.5  0.5
v  -0.5  0.5  -0.5
v  -0.5  0.5  0.5
v  0.5  -0.5  -0.5
v  0.5  -0.5  0.5
v  0.5  0.5  -0.5
v  0.5  0.5  0.5

vt 1.0 0.0
vt 1.0 1.0
vt 0.0 1.0
vt 0.0 0.0
vt 1.0 0.0
vt 1.0 1.0
vt 0.0 1.0
vt 0.0 0.0

vn  0.0  0.0  1.0
vn  0.0  0.0 -1.0
vn  0.0  1.0  0.0
vn  0.0 -1.0  0.0
vn  1.0  0.0  0.0
vn -1.0  0.0  0.0

f  1/1/2  7/7/2  5/5/2
f  1/1/2  3/3/2  7/7/2
f  1/1/6  4/4/6  3/3/6
f  1/1/6  2/2/6  4/4/6
f  3/3/3  8/8/3  7/7/3
f  3/3/3  4/4/3  8/8/3
f  5/5/5  7/7/5  8/8/5
f  5/5/5  8/8/5  6/6/5
f  1/1/4  5/5/4  6/6/4
f  1/1/4  6/6/4  2/2/4
f  2/2/1  6/6/1  8/8/1
f  2/2/1  8/8/1  4/4/1
